<svg xmlns="http://www.w3.org/2000/svg" viewBox="0 0 860 860"><defs><style>.cls-1{fill:#01b7c8;}.cls-2{fill:#fa8c03;}.cls-3{fill:#520c30;}.cls-4{fill:#030304;}.cls-5{fill:#fea700;}.cls-6{fill:#f9f4f7;}</style></defs><g id="Layer_2" data-name="Layer 2"><g id="Layer_1-2" data-name="Layer 1"><path class="cls-1" d="M859.91,430.5q0,212.7.09,425.41c0,3.42-.67,4.09-4.09,4.09Q430,859.85,4.09,860C.67,860,0,859.33,0,855.91Q.15,430,0,4.09C0,.67.67,0,4.09,0Q430,.15,855.91,0c3.42,0,4.09.67,4.09,4.09Q859.84,217.3,859.91,430.5ZM705.6,611.26c1.59-17.59.07-36.77-11.9-55.37C672,522.14,637,531.72,606.62,526.24c-26.11-4.71-52-9.66-74.9-24.16-16.3-10.31-32-26.39-49.56-29-47.42-7-95.53-4-137.88,22.12-38.11,23.54-73.63,49.29-123,43.64-57.2-6.54-100.58,58.28-81.4,112.34,7.79,21.95,19.69,40.7,42.37,47.32,30.41,8.89,61.95-1.52,92.94,1.55,1.6.16,4.46.77,4.51,1.36,3.29,40.11,37.43,50.31,64.87,66.69,19.1,11.4,41,13.91,62.44,17.28,24.65,3.88,49.61,5.43,73.94.31,19.85-4.18,37.41-15.54,57.64-20.5,26.61-6.52,45.61-28,59.53-49.15,7.88-12,13.86-11.54,23.55-11.88,10.6-.37,22.57,2.21,31.56-1.81C690.93,685.47,710.26,672.62,705.6,611.26Zm-414-181.13c47.46-.87,83.2-38.93,82.35-87.67-.77-43.71-40.46-81.17-85.05-80.28-47.77,1-83.72,39.22-82.8,88.13C207,394.36,246.16,431,291.62,430.13Zm283.37-3c47.17-.37,84.2-37.61,84-84.43-.23-45.67-38-83.35-83.34-83.11-48.18.25-84.91,37.23-84.53,85.1C491.44,390.26,529.32,427.47,575,427.12Zm-257.93-298c-18.62-.73-30,3.87-32.76,19-2.51,13.76,4.43,26.73,17.72,26.32,23.33-.71,33,16.92,47.44,28.35,18.69,14.8,33.24,39.72,62.71,29.06,20.58-7.43,19.69-28.75,24-45.79,10.41-41,38.26-70.48,64.25-101.53,9-10.81,6.78-23.44-4.5-32.14-10.69-8.24-22.32-6.87-31.42,3-22.05,24-43.45,48.53-58.47,77.84-.24.46-2.48.63-2.71.27C396,121.66,389.57,109.21,381.46,98c-10.94-15.19-25.06-17-37.63-2.75-13.48,15.26-1.13,28.32,6.55,41.27a23.89,23.89,0,0,1,1.5,4c-.63-.14-1.44-.07-1.86-.44C339.25,130.53,326,129.59,317.06,129.1Z"/><path class="cls-2" d="M705.6,611.26c4.66,61.36-14.67,74.21-52.35,91.11-9,4-21,1.44-31.56,1.81-9.69.34-15.67-.09-23.55,11.88-13.92,21.16-32.92,42.63-59.53,49.15-20.23,5-37.79,16.32-57.64,20.5-24.33,5.12-49.29,3.57-73.94-.31-21.49-3.37-43.34-5.88-62.44-17.28-27.44-16.38-61.58-26.58-64.87-66.69-.05-.59-2.91-1.2-4.51-1.36-31-3.07-62.53,7.34-92.94-1.55-22.68-6.62-34.58-25.37-42.37-47.32-19.18-54.06,24.2-118.88,81.4-112.34,49.35,5.65,84.87-20.1,123-43.64,42.35-26.16,90.46-29.13,137.88-22.12,17.57,2.59,33.26,18.67,49.56,29,22.94,14.5,48.79,19.45,74.9,24.16,30.38,5.48,65.36-4.1,87.08,29.65C705.67,574.49,707.19,593.67,705.6,611.26ZM605.43,663v6h18.49c36.36,0,46-9.55,46-45.45,0-11,1.39-22.21-.35-32.92-2.2-13.57-8.84-25.28-25.1-25.54-42.48-.7-85.41-4.57-122-26.29-27-16-50.53-33.7-84.51-32.34-42.95,1.72-79.06,16.87-112.48,42.82-15.45,12-31.19,23-53.91,23.88-32.55,1.26-71-14-93.7,27.42-7,12.81-8.19,25.17-4.38,36,4.88,13.87,11.18,29.44,32.32,28.7,46.38-1.6,92.82-2,139.23-2.2C431.89,662.73,518.66,663,605.43,663ZM361.54,703v-3c-11.79,0-23.59-.18-35.38.11-3.32.08-6.61,1.51-9.91,2.32,1.9,3.5,2.92,8.22,5.83,10.33,73.82,53.58,151.56,52,223.1,6.41,5.48-3.5,9.27-9.65,13.84-14.56-1.66-.54-3.32-1.53-5-1.54Q457.79,702.89,361.54,703Z"/><path class="cls-3" d="M291.62,430.13c-45.46.84-84.67-35.77-85.5-79.82-.92-48.91,35-87.17,82.8-88.13,44.59-.89,84.28,36.57,85.05,80.28C374.82,391.2,339.08,429.26,291.62,430.13Zm5.67-111.89c-1.91-14.41-9.39-23.76-24.15-23.69s-23.86,9.09-23.8,23.93c.06,14.57,8.89,23.43,23.63,23.51C288.11,342.07,295.48,332.64,297.29,318.24ZM313,368.58c-9.1.94-14.64,6-14.46,15.08.18,8.9,5.87,14.23,14.75,14.1s14.31-5.71,14.25-14.6S321.9,369.48,313,368.58Z"/><path class="cls-3" d="M575,427.12c-45.67.35-83.55-36.86-83.91-82.44-.38-47.87,36.35-84.85,84.53-85.1,45.32-.24,83.11,37.44,83.34,83.11C659.19,389.51,622.16,426.75,575,427.12ZM542.8,340.46c14.47-1.57,23.75-9,23.88-23.8s-8.72-24-23.57-24.08c-14.6-.11-23.58,8.73-23.85,23.35C519,331,528.21,338.68,542.8,340.46ZM602,400c8.84-.95,14.54-5.7,14.52-14.68s-5.39-14.46-14.46-14.53-14.45,5.62-14.57,14.42C587.32,394.19,593,399,602,400Z"/><path class="cls-4" d="M317.06,129.1c8.92.49,22.19,1.43,33,10.9.42.37,1.23.3,1.86.44a23.89,23.89,0,0,0-1.5-4c-7.68-13-20-26-6.55-41.27C356.4,81,370.52,82.76,381.46,98c8.11,11.26,14.56,23.71,21.87,35.55.23.36,2.47.19,2.71-.27,15-29.31,36.42-53.86,58.47-77.84,9.1-9.89,20.73-11.26,31.42-3,11.28,8.7,13.54,21.33,4.5,32.14-26,31.05-53.84,60.56-64.25,101.53-4.32,17-3.43,38.36-24,45.79-29.47,10.66-44-14.26-62.71-29.06C335,191.34,325.35,173.71,302,174.42c-13.29.41-20.23-12.56-17.72-26.32C287.06,133,298.44,128.37,317.06,129.1Z"/><path class="cls-5" d="M205.88,665.24c-21.14.74-27.44-14.83-32.32-28.7-3.81-10.83-2.64-23.19,4.38-36,22.67-41.39,61.15-26.16,93.7-27.42,22.72-.87,38.46-11.88,53.91-23.88,33.42-26,69.53-41.1,112.48-42.82,34-1.36,57.51,16.29,84.51,32.34,36.55,21.72,79.48,25.59,122,26.29,16.26.26,22.9,12,25.1,25.54,1.74,10.71.35,21.93.35,32.92,0,35.9-9.67,45.45-46,45.45H605.43C605.43,667,252.26,663.64,205.88,665.24ZM496.3,580.06c-.86-9.56-6.07-15.48-14.7-15.73C472.07,564.06,466,570,466.13,580c.14,8.83,5.69,13.62,14.33,13.88C489.94,594.18,494.72,588.62,496.3,580.06Zm-123.69,6.05c10.4-.57,16.27-5.64,16-15.28-.23-9.08-6.39-14.88-15.19-14.44-8.1.41-14.49,5.59-14.24,14.76C359.45,579.77,364.23,585.22,372.61,586.11Z"/><path class="cls-5" d="M554,703c1.66,0,3.32,1,5,1.54-4.57,4.91-8.36,11.06-13.84,14.56-71.54,45.64-149.28,47.17-223.1-6.41-2.91-2.11-3.93-6.83-5.83-10.33,3.3-.81,6.59-2.24,9.91-2.32,11.79-.29,35.38-.11,35.38-.11S489.87,702.93,554,703Z"/><path class="cls-6" d="M297.29,318.24c-1.81,14.4-9.18,23.83-24.32,23.75-14.74-.08-23.57-8.94-23.63-23.51-.06-14.84,8.91-23.87,23.8-23.93S295.38,303.83,297.29,318.24Z"/><path class="cls-6" d="M313,368.58c8.92.9,14.48,5.66,14.54,14.58s-5.31,14.48-14.25,14.6-14.57-5.2-14.75-14.1C298.34,374.55,303.88,369.52,313,368.58Z"/><path class="cls-6" d="M542.8,340.46c-14.59-1.78-23.81-9.51-23.54-24.53.27-14.62,9.25-23.46,23.85-23.35,14.85.11,23.7,9.19,23.57,24.08S557.27,338.89,542.8,340.46Z"/><path class="cls-6" d="M602,400c-8.93-1-14.63-5.83-14.51-14.79.12-8.8,5.43-14.49,14.57-14.42s14.44,5.65,14.46,14.53S610.79,399.07,602,400Z"/><path class="cls-2" d="M496.3,580.06c-1.58,8.56-6.36,14.12-15.84,13.83-8.64-.26-14.19-5-14.33-13.88-.15-10,5.94-16,15.47-15.68C490.23,564.58,495.44,570.5,496.3,580.06Z"/><path class="cls-2" d="M372.61,586.11c-8.38-.89-13.16-6.34-13.4-15-.25-9.17,6.14-14.35,14.24-14.76,8.8-.44,15,5.36,15.19,14.44C388.88,580.47,383,585.54,372.61,586.11Z"/></g></g></svg>