<svg width="1024" height="1024" xmlns="http://www.w3.org/2000/svg">
 <title>Drawing</title>

 <g>
  <title>Layer 1</title>
  <rect fill="#01b7c8" y="1025.69947" width="1103.85125" height="1061.54332" id="svg_28" stroke="null" x="38.46172"/>
  <g id="svg_31">
   <path class="cls-2" d="m758.76061,760.65569c4.66,61.36 -14.67,74.21 -52.35,91.11c-9,4 -21,1.44 -31.56,1.81c-9.69,0.34 -15.67,-0.09 -23.55,11.88c-13.92,21.16 -32.92,42.63 -59.53,49.15c-20.23,5 -37.79,16.32 -57.64,20.5c-24.33,5.12 -49.29,3.57 -73.94,-0.31c-21.49,-3.37 -43.34,-5.88 -62.44,-17.28c-27.44,-16.38 -61.58,-26.58 -64.87,-66.69c-0.05,-0.59 -2.91,-1.2 -4.51,-1.36c-31,-3.07 -62.53,7.34 -92.94,-1.55c-22.68,-6.62 -34.58,-25.37 -42.37,-47.32c-19.18,-54.06 24.2,-118.88 81.4,-112.34c49.35,5.65 84.87,-20.1 123,-43.64c42.35,-26.16 90.46,-29.13 137.88,-22.12c17.57,2.59 33.26,18.67 49.56,29c22.94,14.5 48.79,19.45 74.9,24.16c30.38,5.48 65.36,-4.1 87.08,29.65c11.95,18.58 13.47,37.76 11.88,55.35zm-100.17,51.74l0,6l18.49,0c36.36,0 46,-9.55 46,-45.45c0,-11 1.39,-22.21 -0.35,-32.92c-2.2,-13.57 -8.84,-25.28 -25.1,-25.54c-42.48,-0.7 -85.41,-4.57 -122,-26.29c-27,-16 -50.53,-33.7 -84.51,-32.34c-42.95,1.72 -79.06,16.87 -112.48,42.82c-15.45,12 -31.19,23 -53.91,23.88c-32.55,1.26 -71,-14 -93.7,27.42c-7,12.81 -8.19,25.17 -4.38,36c4.88,13.87 11.18,29.44 32.32,28.7c46.38,-1.6 92.82,-2 139.23,-2.2c86.85,-0.35 173.62,-0.08 260.39,-0.08zm-243.89,40l0,-3c-11.79,0 -23.59,-0.18 -35.38,0.11c-3.32,0.08 -6.61,1.51 -9.91,2.32c1.9,3.5 2.92,8.22 5.83,10.33c73.82,53.58 151.56,52 223.1,6.41c5.48,-3.5 9.27,-9.65 13.84,-14.56c-1.66,-0.54 -3.32,-1.53 -5,-1.54q-96.23,-0.18 -192.48,-0.07z" fill="#fa8c03" id="svg_2"/>
   <path class="cls-3" d="m344.78061,579.52569c-45.46,0.84 -84.67,-35.77 -85.5,-79.82c-0.92,-48.91 35,-87.17 82.8,-88.13c44.59,-0.89 84.28,36.57 85.05,80.28c0.85,48.74 -34.89,86.8 -82.35,87.67zm5.67,-111.89c-1.91,-14.41 -9.39,-23.76 -24.15,-23.69s-23.86,9.09 -23.8,23.93c0.06,14.57 8.89,23.43 23.63,23.51c15.14,0.08 22.51,-9.35 24.32,-23.75zm15.71,50.34c-9.1,0.94 -14.64,6 -14.46,15.08c0.18,8.9 5.87,14.23 14.75,14.1s14.31,-5.71 14.25,-14.6s-5.64,-13.68 -14.54,-14.58z" fill="#520c30" id="svg_3"/>
   <path class="cls-3" d="m628.16061,576.51569c-45.67,0.35 -83.55,-36.86 -83.91,-82.44c-0.38,-47.87 36.35,-84.85 84.53,-85.1c45.32,-0.24 83.11,37.44 83.34,83.11c0.23,46.82 -36.8,84.06 -83.96,84.43zm-32.2,-86.66c14.47,-1.57 23.75,-9 23.88,-23.8s-8.72,-24 -23.57,-24.08c-14.6,-0.11 -23.58,8.73 -23.85,23.35c-0.26,15.07 8.95,22.75 23.54,24.53zm59.2,59.54c8.84,-0.95 14.54,-5.7 14.52,-14.68s-5.39,-14.46 -14.46,-14.53s-14.45,5.62 -14.57,14.42c-0.17,8.98 5.51,13.79 14.51,14.79z" fill="#520c30" id="svg_4"/>
   <path class="cls-5" d="m259.04061,814.63569c-21.14,0.74 -27.44,-14.83 -32.32,-28.7c-3.81,-10.83 -2.64,-23.19 4.38,-36c22.67,-41.39 61.15,-26.16 93.7,-27.42c22.72,-0.87 38.46,-11.88 53.91,-23.88c33.42,-26 69.53,-41.1 112.48,-42.82c34,-1.36 57.51,16.29 84.51,32.34c36.55,21.72 79.48,25.59 122,26.29c16.26,0.26 22.9,12 25.1,25.54c1.74,10.71 0.35,21.93 0.35,32.92c0,35.9 -9.67,45.45 -46,45.45l-18.56,0c0,-1.96 -353.17,-5.32 -399.55,-3.72zm290.42,-85.18c-0.86,-9.56 -6.07,-15.48 -14.7,-15.73c-9.53,-0.27 -15.6,5.67 -15.47,15.67c0.14,8.83 5.69,13.62 14.33,13.88c9.48,0.3 14.26,-5.26 15.84,-13.82zm-123.69,6.05c10.4,-0.57 16.27,-5.64 16,-15.28c-0.23,-9.08 -6.39,-14.88 -15.19,-14.44c-8.1,0.41 -14.49,5.59 -14.24,14.76c0.27,8.62 5.05,14.07 13.43,14.96z" fill="#fea700" id="svg_6"/>
   <path class="cls-5" d="m607.16061,852.39569c1.66,0 3.32,1 5,1.54c-4.57,4.91 -8.36,11.06 -13.84,14.56c-71.54,45.64 -149.28,47.17 -223.1,-6.41c-2.91,-2.11 -3.93,-6.83 -5.83,-10.33c3.3,-0.81 6.59,-2.24 9.91,-2.32c11.79,-0.29 35.38,-0.11 35.38,-0.11s128.35,3 192.48,3.07z" fill="#fea700" id="svg_7"/>
   <path class="cls-6" d="m350.45061,467.63569c-1.81,14.4 -9.18,23.83 -24.32,23.75c-14.74,-0.08 -23.57,-8.94 -23.63,-23.51c-0.06,-14.84 8.91,-23.87 23.8,-23.93s22.24,9.28 24.15,23.69z" fill="#f9f4f7" id="svg_8"/>
   <path class="cls-6" d="m366.16061,517.97569c8.92,0.9 14.48,5.66 14.54,14.58s-5.31,14.48 -14.25,14.6s-14.57,-5.2 -14.75,-14.1c-0.2,-9.11 5.34,-14.14 14.46,-15.08z" fill="#f9f4f7" id="svg_9"/>
   <path class="cls-6" d="m595.96061,489.85569c-14.59,-1.78 -23.81,-9.51 -23.54,-24.53c0.27,-14.62 9.25,-23.46 23.85,-23.35c14.85,0.11 23.7,9.19 23.57,24.08s-9.41,22.23 -23.88,23.8z" fill="#f9f4f7" id="svg_10"/>
   <path class="cls-6" d="m655.16061,549.39569c-8.93,-1 -14.63,-5.83 -14.51,-14.79c0.12,-8.8 5.43,-14.49 14.57,-14.42s14.44,5.65 14.46,14.53s-5.73,13.75 -14.52,14.68z" fill="#f9f4f7" id="svg_11"/>
   <path class="cls-2" d="m549.46061,729.45569c-1.58,8.56 -6.36,14.12 -15.84,13.83c-8.64,-0.26 -14.19,-5 -14.33,-13.88c-0.15,-10 5.94,-16 15.47,-15.68c8.63,0.25 13.84,6.17 14.7,15.73z" fill="#fa8c03" id="svg_12"/>
   <path class="cls-2" d="m425.77061,735.50569c-8.38,-0.89 -13.16,-6.34 -13.4,-15c-0.25,-9.17 6.14,-14.35 14.24,-14.76c8.8,-0.44 15,5.36 15.19,14.44c0.24,9.68 -5.64,14.75 -16.03,15.32z" fill="#fa8c03" id="svg_13"/>
   <g stroke-width="0" id="svg_24" stroke="null">
    <g id="svg_14" stroke="null">
     <title stroke="null">Layer 1</title>
     <g id="svg_1" stroke="null">
      <path fill-rule="nonzero" fill="#2c313c" id="svg_15" d="m530.53591,952.39036c1.26822,0 2.51722,-0.02518 3.74061,-0.08392c1.69095,-0.08392 3.33065,-0.22239 4.92553,-0.42379c3.18337,-0.39861 6.16175,-1.04895 8.85829,-1.98465l-7.61569,-4.98884c0,0 7.58369,3.4154 19.8559,3.4154c7.81428,0 17.52444,-1.38462 28.38753,-5.91195c27.9328,-11.64344 22.85349,-34.09955 22.85349,-34.09955l-6.34746,3.3231l0.13451,-0.10488c1.15931,-0.95666 9.76781,-8.69796 6.62293,-25.35542l0,-0.01678l-0.04482,-0.3021c-3.70857,-18.85189 -17.25542,-40.40589 -17.25542,-40.40589l-0.42273,10.74133c0,0 -1.9984,-1.89653 -5.51481,-4.60284c18.67098,-57.05916 201.72322,-332.4528 230.39898,-386.27696c19.11932,-35.88698 -41.52447,-176.9887 -85.07294,-268.98659c-13.45717,74.4551 -45.38038,159.45431 -61.61094,160.24731c-0.16011,0.0084 -0.34587,0.01259 -0.53803,0.01259c-14.9944,0 -109.9505,-24.3904 -209.90898,-48.78077c-99.94566,-24.3904 -204.89376,-48.78077 -239.89778,-48.78077c-3.09368,0 -5.6365,0.19299 -7.59008,0.59161l0,0l0,0c0,0 58.49167,-90.13912 110.66786,-139.94789c-39.28909,22.42253 -92.99612,93.60069 -122.02415,134.81637l-0.00639,0l-0.17294,0.25175l-0.40992,0.57902c-1.15292,1.64478 -2.27381,3.2434 -3.34348,4.78325l-0.50598,0.72167c-1.06967,1.53986 -2.08809,3.00841 -3.06807,4.4308l-0.71097,1.03218c-0.94156,1.36785 -1.83185,2.66855 -2.67733,3.91053l-0.57007,0.84336c-0.85187,1.24197 -1.65252,2.4252 -2.3891,3.52031l-0.26902,0.3944c-0.76862,1.13706 -1.47959,2.19863 -2.12008,3.15528l-0.07048,0.1007c-2.80545,4.20004 -4.35551,6.58326 -4.35551,6.58326l0,0l0.12168,-0.02099c-13.17537,5.96229 -17.44758,11.9749 -8.97997,16.83368c24.05768,13.80431 19.47158,17.41692 13.23301,26.00997c-0.26902,0.36085 -0.51881,0.72589 -0.78783,1.1077c-0.35227,0.49931 -0.69176,1.0154 -1.03763,1.54827c-0.23059,0.36085 -0.46117,0.71331 -0.69176,1.09511c-0.37149,0.6042 -0.71736,1.25035 -1.06324,1.9049l-0.55086,1.03218c-0.50598,1.04058 -0.97998,2.13569 -1.39634,3.3231c-5.97599,17.08124 54.87917,17.21971 56.8904,17.21971c0.03843,0 0.05765,0 0.05765,0c0,0 12.8807,-0.65455 34.13937,-0.65455c67.11938,0 217.71683,6.53291 309.67532,60.85219c0,0 15.92956,3.76785 30.46279,3.76785c7.64134,0 14.89832,-1.04058 19.24744,-4.22522c-6.78304,20.161 -15.83349,51.13464 -21.45721,126.38692c-7.3595,98.59375 -70.09138,242.50248 -93.65584,293.62453c-9.51162,1.27974 -21.8479,3.58744 -29.55967,7.52733l-0.59568,0.31051l-0.03843,0.02099c-0.85187,0.44057 -1.71017,0.89371 -2.58125,1.35945l-0.07686,0.04195c-0.8583,0.46573 -1.723,0.93988 -2.59408,1.42658l-0.17294,0.1007c-0.83908,0.46992 -1.67813,0.94824 -2.51722,1.43917l-0.29462,0.17623c-0.80065,0.46992 -1.60127,0.94824 -2.39553,1.43079l-0.41635,0.25594c-0.7494,0.46156 -1.4988,0.92729 -2.23538,1.39721l-0.59568,0.38603c-0.67254,0.43217 -1.33869,0.86854 -1.9984,1.3091l-0.74302,0.50769c-0.59568,0.40699 -1.19774,0.80978 -1.77421,1.22098l-0.84548,0.60838c-0.5252,0.37762 -1.05046,0.75525 -1.55645,1.13706l-0.92873,0.71748l-1.33225,1.03218l-0.95438,0.7972l-1.13371,0.95247l-0.89673,0.82237l-0.99281,0.91049l-0.85187,0.87272l-0.80065,0.81819l-0.80065,0.95247l-0.58929,0.70072l-0.68537,0.99441l-0.41635,0.60001l-0.5252,1.04058l-0.2498,0.48251c-0.19854,0.4951 -0.34587,0.97764 -0.42273,1.44338c-0.31384,1.87135 -0.07686,3.11752 0.45478,3.9357c0.53803,0.81819 1.37068,1.20841 2.24181,1.36785l1.30665,0.07971c1.26822,-0.04195 2.33789,-0.39021 2.34427,-0.3944c-0.0256,0.01259 -21.57889,9.15952 -17.77425,23.28688c3.81103,14.13995 3.81103,14.13995 3.81103,14.13995l0,0l0,0c0,0 2.8567,-3.27275 6.42433,-5.96229c0.59568,-0.44897 1.21057,-0.88112 1.83829,-1.27974c0.62128,-0.39861 1.25539,-0.76365 1.88949,-1.07412c0,0 -1.78064,3.39444 -2.87592,8.15671c-0.36509,1.59021 -0.65332,3.3315 -0.76862,5.15247c-0.06403,0.91049 -0.07686,1.83778 -0.04482,2.77765c0.04482,1.08252 0.18576,2.18183 0.3843,3.27694c0.28184,1.5021 0.74302,2.99582 1.40273,4.45598c1.76781,3.94829 5.04082,7.61963 10.79266,10.27981c4.93835,2.28253 10.82466,4.59863 17.19139,6.7385c2.33789,0.78461 4.71416,1.55667 7.16734,2.27834c1.82546,0.54127 3.67653,1.06153 5.54686,1.55667c11.73422,3.10071 24.14737,5.228 35.10014,5.228" stroke="null"/>
      <path fill-rule="nonzero" fill="#ffffff" id="svg_23" d="m562.25413,808.01586c0,0 -29.14975,1.80002 -43.11296,8.93295c-13.9632,7.13712 -31.74383,18.78056 -33.01205,26.26594c-1.26822,7.48538 6.34746,4.98884 6.34746,4.98884c0,0 -21.58528,9.15112 -17.77425,23.29107c3.81103,14.13577 3.81103,14.13577 3.81103,14.13577c0,0 5.07925,-5.81961 10.15855,-8.31616c0,0 -12.70137,24.12185 8.88391,34.09955c21.58528,9.98189 60.94485,20.79456 82.53013,13.30918l-7.62212,-4.98884c0,0 20.31706,9.14693 48.24986,-2.49651c27.9328,-11.64344 22.85349,-34.09955 22.85349,-34.09955l-6.34746,3.32729c0,0 10.26741,-7.70355 6.71256,-25.7834c-3.70857,-18.85189 -17.25542,-40.40589 -17.25542,-40.40589l-0.42273,10.73714c0,0 -29.90554,-28.49811 -64.00009,-22.99738" stroke="null"/>
      <path fill-rule="nonzero" fill="#ecedd4" id="svg_22" d="m608.01877,885.26119c-30.45002,9.9693 -60.84877,-2.34128 -72.69823,-18.6421c0.61489,3.68814 -4.89992,8.8532 3.7726,11.69379c-38.6742,-8.44621 -28.57968,-37.42684 -20.54765,-61.05358c-13.87352,7.15811 -31.16099,18.57498 -32.41637,25.95543c-1.26822,7.48538 6.34746,4.98884 6.34746,4.98884c0,0 -21.58528,9.15112 -17.77425,23.29107c3.81103,14.13577 3.81103,14.13577 3.81103,14.13577c0,0 5.07925,-5.81961 10.15855,-8.31616c0,0 -12.70137,24.12185 8.88391,34.09955c21.58528,9.98189 60.94485,20.79456 82.53013,13.30918l-7.62212,-4.98884c0,0 20.31706,9.14693 48.24986,-2.49651c27.9328,-11.64344 22.85349,-34.09955 22.85349,-34.09955l-6.34746,3.32729c0,0 10.13291,-7.62384 6.75743,-25.4813c-10.75423,4.33429 -23.02005,6.91055 -35.9584,6.91055c26.50441,6.9483 -10.6069,10.41827 0,17.36657" stroke="null"/>
      <path fill-rule="nonzero" fill="#ed1e28" id="svg_21" d="m214.4939,259.61605c0,0 99.32438,-153.06407 154.56225,-170.48936c55.23788,-17.42111 311.34705,-28.62817 356.54166,0c45.19461,28.63239 -25.9856,266.12083 -53.169,267.44673c-13.09852,0.63778 -109.20748,-24.06731 -210.44702,-48.76818c-108.79118,-26.54705 -223.50066,-53.09409 -247.48786,-48.18916" stroke="null"/>
      <path fill-rule="nonzero" fill="#e01d26" id="svg_20" d="m499.61833,216.44511c45.19461,9.8686 85.374,32.89533 135.59022,36.18489c0,-57.99483 39.91677,-109.15884 101.34839,-146.84584c18.9656,61.80047 -39.96163,249.61023 -64.12816,250.78924c-27.17695,1.32587 -411.6322,-106.42317 -457.93488,-96.95737c0,0 7.98078,-12.29381 20.66293,-30.30653c88.92247,-4.11193 174.68716,-33.445 264.46149,-12.86443" stroke="null"/>
      <path fill-rule="nonzero" fill="#ffffff" id="svg_19" d="m270.28902,329.66969c0,0 222.72565,-11.32457 343.81464,60.19763c0,0 48.09614,11.40009 53.39959,-5.38746c5.30345,-16.78755 5.76462,-22.63652 30.98161,-35.77369c25.21698,-13.14135 -118.69988,-99.93221 -249.2685,-112.26796c-130.56862,-12.33576 -275.18368,21.85191 -243.58075,39.99051c31.60294,18.1386 13.78383,18.65468 7.70537,36.02125c-6.07846,17.36657 56.94804,17.21971 56.94804,17.21971" stroke="null"/>
      <path fill-rule="nonzero" fill="#ecedd4" id="svg_18" d="m639.49359,326.1536c-22.58447,20.18617 -62.80874,4.68674 -92.06735,-5.30774c6.25783,5.15247 14.59731,12.02107 11.97758,13.38892c-52.38756,13.27141 -105.60143,-23.50506 -155.77921,-36.62124c4.17613,3.43639 13.05364,7.22104 12.51561,10.30498c-0.53803,3.08394 -8.40351,7.18329 -13.11129,6.83501c-34.50447,-7.26299 -64.83913,-11.0896 -90.94008,-25.53587c-23.64133,26.14425 -58.48528,22.9806 -92.0097,11.55533c-2.24181,3.04199 -4.97678,6.65038 -6.73821,11.67702c-6.07846,17.36657 56.94804,17.21971 56.94804,17.21971c0,0 222.72565,-11.32457 343.81464,60.19763c0,0 48.09614,11.40009 53.39959,-5.38746c5.30345,-16.78755 5.76462,-22.63652 30.98161,-35.77369c11.65736,-6.07558 -12.84871,-27.89391 -55.45564,-50.81576c3.00399,10.13713 4.08005,19.9428 -3.53564,28.26313" stroke="null"/>
      <path fill-rule="nonzero" fill="#ed1e28" id="svg_17" d="m725.59778,89.12668c0,0 154.54303,296.57422 125.54057,351.01096c-29.00243,54.43678 -215.92978,335.53673 -230.99466,388.16928c-15.06487,52.63255 -80.3524,0 -80.3524,0c0,0 93.47651,-190.79719 102.5654,-312.51c9.08888,-121.71277 27.16418,-127.63308 30.0721,-159.22355c4.62453,-50.21156 28.06087,-213.83654 53.169,-267.44673" stroke="null"/>
      <path fill-rule="nonzero" fill="#ee2234" id="svg_16" d="m398.07779,167.48809c50.48523,-0.0084 132.95771,-57.70953 79.30194,-61.70396c-4.46436,-0.33146 -8.80704,-0.48672 -13.03443,-0.48672c-64.30754,0 -100.31076,36.15972 -100.31076,36.15972c2.60691,18.9526 16.35869,26.03515 34.04329,26.03096" stroke="null"/>
     </g>
    </g>
   </g>
   <path class="cls-4" d="m370.22061,278.49569c8.92,0.49 22.19,1.43 33,10.9c0.42,0.37 1.23,0.3 1.86,0.44a23.89,23.89 0 0 0 -1.5,-4c-7.68,-13 -20,-26 -6.55,-41.27c12.53,-14.17 26.65,-12.41 37.59,2.83c8.11,11.26 14.56,23.71 21.87,35.55c0.23,0.36 2.47,0.19 2.71,-0.27c15,-29.31 36.42,-53.86 58.47,-77.84c9.1,-9.89 20.73,-11.26 31.42,-3c11.28,8.7 13.54,21.33 4.5,32.14c-26,31.05 -53.84,60.56 -64.25,101.53c-4.32,17 -3.43,38.36 -24,45.79c-29.47,10.66 -44,-14.26 -62.71,-29.06c-14.47,-11.5 -24.12,-29.13 -47.47,-28.42c-13.29,0.41 -20.23,-12.56 -17.72,-26.32c2.78,-15.1 14.16,-19.73 32.78,-19z" fill="#030304" id="svg_5" stroke="null"/>
  </g>
 </g>
</svg>